# xmcd
#
# Track frame offsets:
#	150
#	12118
#	21945
#	32575
#	45200
#	52900
#	63828
#	73350
#	83453
#	94210
#	104200
#	114163
#	126400
#	138195
#	146228
#	156395
#	165258
#	176513
#
# Disc length: 2483 seconds
#
# Revision: 4
# Processed by: cddbd v1.5.2PL0 Copyright (c) Steve Scherf et al.
# Submitted via: audiograbber 1.83.01
#
DISCID=eb09b112
DTITLE=Johnny Cash - Cold Cold Heart (Country Gold)
DYEAR=2001
DGENRE=Country
TTITLE0=You're The Nearest Thing To Heaven
TTITLE1=Rock Island Line
TTITLE2=Cold Cold Heart
TTITLE3=Folsom Prison Blues
TTITLE4=Hey Good Lookin'
TTITLE5=I Love You Because
TTITLE6=Just About Time
TTITLE7=Straight As In Love
TTITLE8=I Just Thought You'd Like To Know
TTITLE9=Goodbye Little Darling
TTITLE10=I Could Never Be Ashamed Of You
TTITLE11=Next In Line
TTITLE12=Port Of Lonely Hearts
TTITLE13=Sugartime
TTITLE14=There You Go
TTITLE15=Two Timin' Woman
TTITLE16=Big River
TTITLE17=Ballad Of A Teenage Queen
EXTD=
EXTT0=
EXTT1=
EXTT2=
EXTT3=
EXTT4=
EXTT5=
EXTT6=
EXTT7=
EXTT8=
EXTT9=
EXTT10=
EXTT11=
EXTT12=
EXTT13=
EXTT14=
EXTT15=
EXTT16=
EXTT17=
PLAYORDER=
